<mxfile host="app.diagrams.net" modified="2020-09-02T09:47:14.774Z" agent="5.0 (Macintosh; Intel Mac OS X 10_15_5) AppleWebKit/537.36 (KHTML, like Gecko) Chrome/84.0.4147.135 Safari/537.36" etag="BxpMnLxwFhfr2yLNnGAn" version="13.6.6" type="github">
  <diagram id="UIaq7PI6lBnkNXPh5i5r" name="Page-1">
    <mxGraphModel dx="1261" dy="843" grid="1" gridSize="10" guides="1" tooltips="1" connect="1" arrows="1" fold="1" page="1" pageScale="1" pageWidth="827" pageHeight="1169" math="0" shadow="0">
      <root>
        <mxCell id="0" />
        <mxCell id="1" parent="0" />
        <mxCell id="0vb3Nj11Cbn2temx3xG7-1" value="&lt;font style=&quot;font-size: 15px&quot;&gt;&lt;b&gt;管理时&lt;/b&gt;&lt;/font&gt;" style="rounded=0;whiteSpace=wrap;html=1;fillColor=#d5e8d4;strokeColor=#82b366;" vertex="1" parent="1">
          <mxGeometry x="110" y="290" width="120" height="80" as="geometry" />
        </mxCell>
        <mxCell id="0vb3Nj11Cbn2temx3xG7-6" value="" style="shape=curlyBracket;whiteSpace=wrap;html=1;rounded=1;" vertex="1" parent="1">
          <mxGeometry x="250" y="240" width="20" height="180" as="geometry" />
        </mxCell>
        <mxCell id="0vb3Nj11Cbn2temx3xG7-7" value="Add" style="rounded=0;whiteSpace=wrap;html=1;" vertex="1" parent="1">
          <mxGeometry x="280" y="240" width="80" height="30" as="geometry" />
        </mxCell>
        <mxCell id="0vb3Nj11Cbn2temx3xG7-8" value="Update" style="rounded=0;whiteSpace=wrap;html=1;" vertex="1" parent="1">
          <mxGeometry x="280" y="300" width="80" height="30" as="geometry" />
        </mxCell>
        <mxCell id="0vb3Nj11Cbn2temx3xG7-9" value="Delete" style="rounded=0;whiteSpace=wrap;html=1;" vertex="1" parent="1">
          <mxGeometry x="280" y="350" width="80" height="30" as="geometry" />
        </mxCell>
        <mxCell id="0vb3Nj11Cbn2temx3xG7-10" value="&lt;b&gt;&lt;font style=&quot;font-size: 15px&quot;&gt;.....&lt;/font&gt;&lt;/b&gt;" style="rounded=0;whiteSpace=wrap;html=1;" vertex="1" parent="1">
          <mxGeometry x="280" y="400" width="80" height="30" as="geometry" />
        </mxCell>
        <mxCell id="0vb3Nj11Cbn2temx3xG7-12" value="notify" style="endArrow=classic;html=1;" edge="1" parent="1">
          <mxGeometry width="50" height="50" relative="1" as="geometry">
            <mxPoint x="390" y="330" as="sourcePoint" />
            <mxPoint x="510" y="330" as="targetPoint" />
          </mxGeometry>
        </mxCell>
        <mxCell id="0vb3Nj11Cbn2temx3xG7-14" value="TConf" style="rounded=0;whiteSpace=wrap;html=1;dashed=1;" vertex="1" parent="1">
          <mxGeometry x="540" y="210" width="50" height="240" as="geometry" />
        </mxCell>
        <mxCell id="0vb3Nj11Cbn2temx3xG7-15" value="watching" style="endArrow=classic;html=1;" edge="1" parent="1">
          <mxGeometry width="50" height="50" relative="1" as="geometry">
            <mxPoint x="620" y="315" as="sourcePoint" />
            <mxPoint x="720" y="250" as="targetPoint" />
          </mxGeometry>
        </mxCell>
        <mxCell id="0vb3Nj11Cbn2temx3xG7-16" value="watching" style="endArrow=classic;html=1;" edge="1" parent="1">
          <mxGeometry width="50" height="50" relative="1" as="geometry">
            <mxPoint x="620" y="345" as="sourcePoint" />
            <mxPoint x="720" y="405" as="targetPoint" />
          </mxGeometry>
        </mxCell>
        <mxCell id="0vb3Nj11Cbn2temx3xG7-17" value="Flink" style="rounded=0;whiteSpace=wrap;html=1;fillColor=#f5f5f5;strokeColor=#666666;fontColor=#333333;" vertex="1" parent="1">
          <mxGeometry x="740" y="215" width="120" height="55" as="geometry" />
        </mxCell>
        <mxCell id="0vb3Nj11Cbn2temx3xG7-18" value="Serving" style="rounded=0;whiteSpace=wrap;html=1;fillColor=#ffe6cc;strokeColor=#d79b00;" vertex="1" parent="1">
          <mxGeometry x="740" y="375" width="120" height="55" as="geometry" />
        </mxCell>
      </root>
    </mxGraphModel>
  </diagram>
</mxfile>
